<mxfile host="app.diagrams.net" agent="Mozilla/5.0 (X11; Linux x86_64) AppleWebKit/537.36 (KHTML, like Gecko) Chrome/128.0.0.0 Safari/537.36" version="24.7.16">
  <diagram name="Page-1" id="8au3yjPGq744FUfKGCbA">
    <mxGraphModel dx="2948" dy="2320" grid="1" gridSize="10" guides="1" tooltips="1" connect="1" arrows="1" fold="1" page="1" pageScale="1" pageWidth="850" pageHeight="1100" math="0" shadow="0">
      <root>
        <mxCell id="0" />
        <mxCell id="1" parent="0" />
        <mxCell id="XYr579Nh2tgdhDAdJk-7-1" style="edgeStyle=orthogonalEdgeStyle;rounded=0;orthogonalLoop=1;jettySize=auto;html=1;exitX=1;exitY=0.5;exitDx=0;exitDy=0;entryX=0;entryY=0.5;entryDx=0;entryDy=0;strokeWidth=4;" edge="1" parent="1" source="XYr579Nh2tgdhDAdJk-7-3" target="XYr579Nh2tgdhDAdJk-7-10">
          <mxGeometry relative="1" as="geometry" />
        </mxCell>
        <mxCell id="XYr579Nh2tgdhDAdJk-7-2" style="edgeStyle=orthogonalEdgeStyle;rounded=0;orthogonalLoop=1;jettySize=auto;html=1;exitX=0.5;exitY=0;exitDx=0;exitDy=0;entryX=0.5;entryY=1;entryDx=0;entryDy=0;strokeWidth=4;" edge="1" parent="1" source="XYr579Nh2tgdhDAdJk-7-3" target="XYr579Nh2tgdhDAdJk-7-55">
          <mxGeometry relative="1" as="geometry" />
        </mxCell>
        <mxCell id="XYr579Nh2tgdhDAdJk-7-3" value="" style="rounded=1;whiteSpace=wrap;html=1;fillColor=#f8cecc;strokeColor=#b85450;strokeWidth=4;" vertex="1" parent="1">
          <mxGeometry x="240" y="160" width="80" height="280" as="geometry" />
        </mxCell>
        <mxCell id="XYr579Nh2tgdhDAdJk-7-4" value="" style="ellipse;whiteSpace=wrap;html=1;aspect=fixed;fillColor=#d80073;strokeColor=#A50040;strokeWidth=4;fontColor=#ffffff;" vertex="1" parent="1">
          <mxGeometry x="255" y="170" width="50" height="50" as="geometry" />
        </mxCell>
        <mxCell id="XYr579Nh2tgdhDAdJk-7-5" value="" style="ellipse;whiteSpace=wrap;html=1;aspect=fixed;fillColor=#d80073;strokeColor=#A50040;strokeWidth=4;fontColor=#ffffff;" vertex="1" parent="1">
          <mxGeometry x="255" y="240" width="50" height="50" as="geometry" />
        </mxCell>
        <mxCell id="XYr579Nh2tgdhDAdJk-7-6" value="" style="ellipse;whiteSpace=wrap;html=1;aspect=fixed;fillColor=#d80073;strokeColor=#A50040;strokeWidth=4;fontColor=#ffffff;" vertex="1" parent="1">
          <mxGeometry x="255" y="310" width="50" height="50" as="geometry" />
        </mxCell>
        <mxCell id="XYr579Nh2tgdhDAdJk-7-7" value="" style="ellipse;whiteSpace=wrap;html=1;aspect=fixed;fillColor=#d80073;strokeColor=#A50040;strokeWidth=4;fontColor=#ffffff;" vertex="1" parent="1">
          <mxGeometry x="255" y="380" width="50" height="50" as="geometry" />
        </mxCell>
        <mxCell id="XYr579Nh2tgdhDAdJk-7-9" style="edgeStyle=orthogonalEdgeStyle;rounded=0;orthogonalLoop=1;jettySize=auto;html=1;exitX=0.5;exitY=0;exitDx=0;exitDy=0;strokeWidth=4;" edge="1" parent="1" source="XYr579Nh2tgdhDAdJk-7-10" target="XYr579Nh2tgdhDAdJk-7-56">
          <mxGeometry relative="1" as="geometry" />
        </mxCell>
        <mxCell id="XYr579Nh2tgdhDAdJk-7-10" value="" style="rounded=1;whiteSpace=wrap;html=1;fillColor=#f8cecc;strokeColor=#b85450;strokeWidth=4;" vertex="1" parent="1">
          <mxGeometry x="400" y="160" width="80" height="280" as="geometry" />
        </mxCell>
        <mxCell id="XYr579Nh2tgdhDAdJk-7-11" value="" style="ellipse;whiteSpace=wrap;html=1;aspect=fixed;fillColor=#d80073;strokeColor=#A50040;strokeWidth=4;fontColor=#ffffff;" vertex="1" parent="1">
          <mxGeometry x="415" y="170" width="50" height="50" as="geometry" />
        </mxCell>
        <mxCell id="XYr579Nh2tgdhDAdJk-7-12" value="" style="ellipse;whiteSpace=wrap;html=1;aspect=fixed;fillColor=#d80073;strokeColor=#A50040;strokeWidth=4;fontColor=#ffffff;" vertex="1" parent="1">
          <mxGeometry x="415" y="240" width="50" height="50" as="geometry" />
        </mxCell>
        <mxCell id="XYr579Nh2tgdhDAdJk-7-13" value="" style="ellipse;whiteSpace=wrap;html=1;aspect=fixed;fillColor=#d80073;strokeColor=#A50040;strokeWidth=4;fontColor=#ffffff;" vertex="1" parent="1">
          <mxGeometry x="415" y="310" width="50" height="50" as="geometry" />
        </mxCell>
        <mxCell id="XYr579Nh2tgdhDAdJk-7-14" value="" style="ellipse;whiteSpace=wrap;html=1;aspect=fixed;fillColor=#d80073;strokeColor=#A50040;strokeWidth=4;fontColor=#ffffff;" vertex="1" parent="1">
          <mxGeometry x="415" y="380" width="50" height="50" as="geometry" />
        </mxCell>
        <mxCell id="XYr579Nh2tgdhDAdJk-7-15" style="edgeStyle=orthogonalEdgeStyle;rounded=0;orthogonalLoop=1;jettySize=auto;html=1;entryX=0.5;entryY=1;entryDx=0;entryDy=0;strokeWidth=4;" edge="1" parent="1" source="XYr579Nh2tgdhDAdJk-7-16" target="XYr579Nh2tgdhDAdJk-7-3">
          <mxGeometry relative="1" as="geometry" />
        </mxCell>
        <mxCell id="XYr579Nh2tgdhDAdJk-7-16" value="sem" style="text;html=1;align=center;verticalAlign=middle;whiteSpace=wrap;rounded=0;fontStyle=1;fontSize=45;" vertex="1" parent="1">
          <mxGeometry x="250" y="520" width="60" height="30" as="geometry" />
        </mxCell>
        <mxCell id="XYr579Nh2tgdhDAdJk-7-17" style="edgeStyle=orthogonalEdgeStyle;rounded=0;orthogonalLoop=1;jettySize=auto;html=1;entryX=0.5;entryY=1;entryDx=0;entryDy=0;strokeWidth=4;" edge="1" parent="1" source="XYr579Nh2tgdhDAdJk-7-18" target="XYr579Nh2tgdhDAdJk-7-10">
          <mxGeometry relative="1" as="geometry" />
        </mxCell>
        <mxCell id="XYr579Nh2tgdhDAdJk-7-18" value="palavras" style="text;html=1;align=center;verticalAlign=middle;whiteSpace=wrap;rounded=0;fontStyle=1;fontSize=45;" vertex="1" parent="1">
          <mxGeometry x="410" y="520" width="60" height="30" as="geometry" />
        </mxCell>
        <mxCell id="XYr579Nh2tgdhDAdJk-7-20" style="edgeStyle=orthogonalEdgeStyle;rounded=0;orthogonalLoop=1;jettySize=auto;html=1;exitX=1;exitY=0.5;exitDx=0;exitDy=0;entryX=0;entryY=0.5;entryDx=0;entryDy=0;strokeWidth=4;" edge="1" parent="1">
          <mxGeometry relative="1" as="geometry">
            <mxPoint x="880" y="300" as="targetPoint" />
            <mxPoint x="800" y="300" as="sourcePoint" />
          </mxGeometry>
        </mxCell>
        <mxCell id="XYr579Nh2tgdhDAdJk-7-26" style="edgeStyle=orthogonalEdgeStyle;rounded=0;orthogonalLoop=1;jettySize=auto;html=1;entryX=0.5;entryY=1;entryDx=0;entryDy=0;strokeWidth=4;" edge="1" parent="1">
          <mxGeometry relative="1" as="geometry">
            <mxPoint x="759.9999999999995" y="520" as="sourcePoint" />
            <mxPoint x="759.9999999999995" y="440" as="targetPoint" />
          </mxGeometry>
        </mxCell>
        <mxCell id="XYr579Nh2tgdhDAdJk-7-28" style="edgeStyle=orthogonalEdgeStyle;rounded=0;orthogonalLoop=1;jettySize=auto;html=1;exitX=1;exitY=0.5;exitDx=0;exitDy=0;entryX=0;entryY=0.5;entryDx=0;entryDy=0;strokeWidth=4;" edge="1" parent="1">
          <mxGeometry relative="1" as="geometry">
            <mxPoint x="639.9999999999995" y="300" as="sourcePoint" />
            <mxPoint x="719.9999999999995" y="300" as="targetPoint" />
          </mxGeometry>
        </mxCell>
        <mxCell id="XYr579Nh2tgdhDAdJk-7-30" style="edgeStyle=orthogonalEdgeStyle;rounded=0;orthogonalLoop=1;jettySize=auto;html=1;exitX=1;exitY=0.5;exitDx=0;exitDy=0;entryX=0;entryY=0.5;entryDx=0;entryDy=0;strokeWidth=4;" edge="1" parent="1" source="XYr579Nh2tgdhDAdJk-7-32" target="XYr579Nh2tgdhDAdJk-7-39">
          <mxGeometry relative="1" as="geometry" />
        </mxCell>
        <mxCell id="XYr579Nh2tgdhDAdJk-7-31" style="edgeStyle=orthogonalEdgeStyle;rounded=0;orthogonalLoop=1;jettySize=auto;html=1;entryX=0.5;entryY=1;entryDx=0;entryDy=0;strokeWidth=4;" edge="1" parent="1" source="XYr579Nh2tgdhDAdJk-7-32" target="XYr579Nh2tgdhDAdJk-7-52">
          <mxGeometry relative="1" as="geometry" />
        </mxCell>
        <mxCell id="XYr579Nh2tgdhDAdJk-7-32" value="" style="rounded=1;whiteSpace=wrap;html=1;fillColor=#f8cecc;strokeColor=#b85450;strokeWidth=4;" vertex="1" parent="1">
          <mxGeometry x="-80" y="160" width="80" height="280" as="geometry" />
        </mxCell>
        <mxCell id="XYr579Nh2tgdhDAdJk-7-33" value="" style="ellipse;whiteSpace=wrap;html=1;aspect=fixed;fillColor=#d80073;strokeColor=#A50040;strokeWidth=4;fontColor=#ffffff;" vertex="1" parent="1">
          <mxGeometry x="-65" y="170" width="50" height="50" as="geometry" />
        </mxCell>
        <mxCell id="XYr579Nh2tgdhDAdJk-7-34" value="" style="ellipse;whiteSpace=wrap;html=1;aspect=fixed;fillColor=#d80073;strokeColor=#A50040;strokeWidth=4;fontColor=#ffffff;" vertex="1" parent="1">
          <mxGeometry x="-65" y="240" width="50" height="50" as="geometry" />
        </mxCell>
        <mxCell id="XYr579Nh2tgdhDAdJk-7-35" value="" style="ellipse;whiteSpace=wrap;html=1;aspect=fixed;fillColor=#d80073;strokeColor=#A50040;strokeWidth=4;fontColor=#ffffff;" vertex="1" parent="1">
          <mxGeometry x="-65" y="310" width="50" height="50" as="geometry" />
        </mxCell>
        <mxCell id="XYr579Nh2tgdhDAdJk-7-36" value="" style="ellipse;whiteSpace=wrap;html=1;aspect=fixed;fillColor=#d80073;strokeColor=#A50040;strokeWidth=4;fontColor=#ffffff;" vertex="1" parent="1">
          <mxGeometry x="-65" y="380" width="50" height="50" as="geometry" />
        </mxCell>
        <mxCell id="XYr579Nh2tgdhDAdJk-7-37" style="edgeStyle=orthogonalEdgeStyle;rounded=0;orthogonalLoop=1;jettySize=auto;html=1;exitX=1;exitY=0.5;exitDx=0;exitDy=0;entryX=0;entryY=0.5;entryDx=0;entryDy=0;strokeWidth=4;" edge="1" parent="1" source="XYr579Nh2tgdhDAdJk-7-39" target="XYr579Nh2tgdhDAdJk-7-3">
          <mxGeometry relative="1" as="geometry" />
        </mxCell>
        <mxCell id="XYr579Nh2tgdhDAdJk-7-38" style="edgeStyle=orthogonalEdgeStyle;rounded=0;orthogonalLoop=1;jettySize=auto;html=1;exitX=0.5;exitY=0;exitDx=0;exitDy=0;entryX=0.5;entryY=1;entryDx=0;entryDy=0;strokeWidth=4;" edge="1" parent="1" source="XYr579Nh2tgdhDAdJk-7-39" target="XYr579Nh2tgdhDAdJk-7-54">
          <mxGeometry relative="1" as="geometry" />
        </mxCell>
        <mxCell id="XYr579Nh2tgdhDAdJk-7-39" value="" style="rounded=1;whiteSpace=wrap;html=1;fillColor=#f8cecc;strokeColor=#b85450;strokeWidth=4;" vertex="1" parent="1">
          <mxGeometry x="80" y="160" width="80" height="280" as="geometry" />
        </mxCell>
        <mxCell id="XYr579Nh2tgdhDAdJk-7-40" value="" style="ellipse;whiteSpace=wrap;html=1;aspect=fixed;fillColor=#d80073;strokeColor=#A50040;strokeWidth=4;fontColor=#ffffff;" vertex="1" parent="1">
          <mxGeometry x="95" y="170" width="50" height="50" as="geometry" />
        </mxCell>
        <mxCell id="XYr579Nh2tgdhDAdJk-7-41" value="" style="ellipse;whiteSpace=wrap;html=1;aspect=fixed;fillColor=#d80073;strokeColor=#A50040;strokeWidth=4;fontColor=#ffffff;" vertex="1" parent="1">
          <mxGeometry x="95" y="240" width="50" height="50" as="geometry" />
        </mxCell>
        <mxCell id="XYr579Nh2tgdhDAdJk-7-42" value="" style="ellipse;whiteSpace=wrap;html=1;aspect=fixed;fillColor=#d80073;strokeColor=#A50040;strokeWidth=4;fontColor=#ffffff;" vertex="1" parent="1">
          <mxGeometry x="95" y="310" width="50" height="50" as="geometry" />
        </mxCell>
        <mxCell id="XYr579Nh2tgdhDAdJk-7-43" value="" style="ellipse;whiteSpace=wrap;html=1;aspect=fixed;fillColor=#d80073;strokeColor=#A50040;strokeWidth=4;fontColor=#ffffff;" vertex="1" parent="1">
          <mxGeometry x="95" y="380" width="50" height="50" as="geometry" />
        </mxCell>
        <mxCell id="XYr579Nh2tgdhDAdJk-7-44" style="edgeStyle=orthogonalEdgeStyle;rounded=0;orthogonalLoop=1;jettySize=auto;html=1;entryX=0.5;entryY=1;entryDx=0;entryDy=0;strokeWidth=4;" edge="1" parent="1" source="XYr579Nh2tgdhDAdJk-7-45" target="XYr579Nh2tgdhDAdJk-7-32">
          <mxGeometry relative="1" as="geometry" />
        </mxCell>
        <mxCell id="XYr579Nh2tgdhDAdJk-7-45" value="Eu" style="text;html=1;align=center;verticalAlign=middle;whiteSpace=wrap;rounded=0;fontStyle=1;fontSize=45;" vertex="1" parent="1">
          <mxGeometry x="-70" y="520" width="60" height="30" as="geometry" />
        </mxCell>
        <mxCell id="XYr579Nh2tgdhDAdJk-7-46" style="edgeStyle=orthogonalEdgeStyle;rounded=0;orthogonalLoop=1;jettySize=auto;html=1;entryX=0.5;entryY=1;entryDx=0;entryDy=0;strokeWidth=4;" edge="1" parent="1" source="XYr579Nh2tgdhDAdJk-7-47" target="XYr579Nh2tgdhDAdJk-7-39">
          <mxGeometry relative="1" as="geometry" />
        </mxCell>
        <mxCell id="XYr579Nh2tgdhDAdJk-7-47" value="estou" style="text;html=1;align=center;verticalAlign=middle;whiteSpace=wrap;rounded=0;fontStyle=1;fontSize=45;" vertex="1" parent="1">
          <mxGeometry x="90" y="520" width="60" height="30" as="geometry" />
        </mxCell>
        <mxCell id="XYr579Nh2tgdhDAdJk-7-48" value="" style="shape=curlyBracket;whiteSpace=wrap;html=1;rounded=1;labelPosition=left;verticalLabelPosition=middle;align=right;verticalAlign=middle;rotation=-90;strokeWidth=4;" vertex="1" parent="1">
          <mxGeometry x="200" y="305" width="20" height="590" as="geometry" />
        </mxCell>
        <mxCell id="XYr579Nh2tgdhDAdJk-7-49" value="Sentença de Entrada" style="text;html=1;align=center;verticalAlign=middle;whiteSpace=wrap;rounded=0;fontSize=28;" vertex="1" parent="1">
          <mxGeometry x="50" y="630" width="320" height="30" as="geometry" />
        </mxCell>
        <mxCell id="XYr579Nh2tgdhDAdJk-7-52" value="" style="ellipse;whiteSpace=wrap;html=1;aspect=fixed;fillColor=#1ba1e2;strokeColor=#006EAF;strokeWidth=4;fontColor=#ffffff;" vertex="1" parent="1">
          <mxGeometry x="-65" y="-80" width="50" height="50" as="geometry" />
        </mxCell>
        <mxCell id="XYr579Nh2tgdhDAdJk-7-53" value="" style="endArrow=classic;html=1;rounded=0;entryX=0.798;entryY=1.024;entryDx=0;entryDy=0;entryPerimeter=0;strokeWidth=4;exitX=0.5;exitY=0;exitDx=0;exitDy=0;" edge="1" parent="1" source="XYr579Nh2tgdhDAdJk-7-121" target="XYr579Nh2tgdhDAdJk-7-52">
          <mxGeometry width="50" height="50" relative="1" as="geometry">
            <mxPoint x="710" y="100" as="sourcePoint" />
            <mxPoint x="330" y="180" as="targetPoint" />
          </mxGeometry>
        </mxCell>
        <mxCell id="XYr579Nh2tgdhDAdJk-7-54" value="" style="ellipse;whiteSpace=wrap;html=1;aspect=fixed;fillColor=#1ba1e2;strokeColor=#006EAF;strokeWidth=4;fontColor=#ffffff;" vertex="1" parent="1">
          <mxGeometry x="95" y="-80" width="50" height="50" as="geometry" />
        </mxCell>
        <mxCell id="XYr579Nh2tgdhDAdJk-7-55" value="" style="ellipse;whiteSpace=wrap;html=1;aspect=fixed;fillColor=#1ba1e2;strokeColor=#006EAF;strokeWidth=4;fontColor=#ffffff;" vertex="1" parent="1">
          <mxGeometry x="255" y="-80" width="50" height="50" as="geometry" />
        </mxCell>
        <mxCell id="XYr579Nh2tgdhDAdJk-7-56" value="" style="ellipse;whiteSpace=wrap;html=1;aspect=fixed;fillColor=#1ba1e2;strokeColor=#006EAF;strokeWidth=4;fontColor=#ffffff;" vertex="1" parent="1">
          <mxGeometry x="415" y="-80" width="50" height="50" as="geometry" />
        </mxCell>
        <mxCell id="XYr579Nh2tgdhDAdJk-7-57" value="" style="endArrow=classic;html=1;rounded=0;entryX=1;entryY=1;entryDx=0;entryDy=0;strokeWidth=4;exitX=0.5;exitY=0;exitDx=0;exitDy=0;" edge="1" parent="1" source="XYr579Nh2tgdhDAdJk-7-121" target="XYr579Nh2tgdhDAdJk-7-54">
          <mxGeometry width="50" height="50" relative="1" as="geometry">
            <mxPoint x="710" y="80" as="sourcePoint" />
            <mxPoint x="-15" y="-19" as="targetPoint" />
          </mxGeometry>
        </mxCell>
        <mxCell id="XYr579Nh2tgdhDAdJk-7-58" value="" style="endArrow=classic;html=1;rounded=0;entryX=1;entryY=1;entryDx=0;entryDy=0;strokeWidth=4;exitX=0.5;exitY=0;exitDx=0;exitDy=0;" edge="1" parent="1" source="XYr579Nh2tgdhDAdJk-7-121" target="XYr579Nh2tgdhDAdJk-7-55">
          <mxGeometry width="50" height="50" relative="1" as="geometry">
            <mxPoint x="740" y="70" as="sourcePoint" />
            <mxPoint x="-5" y="-9" as="targetPoint" />
          </mxGeometry>
        </mxCell>
        <mxCell id="XYr579Nh2tgdhDAdJk-7-59" value="" style="endArrow=classic;html=1;rounded=0;entryX=1;entryY=1;entryDx=0;entryDy=0;strokeWidth=4;exitX=0.5;exitY=0;exitDx=0;exitDy=0;" edge="1" parent="1" source="XYr579Nh2tgdhDAdJk-7-121" target="XYr579Nh2tgdhDAdJk-7-56">
          <mxGeometry width="50" height="50" relative="1" as="geometry">
            <mxPoint x="960" y="10" as="sourcePoint" />
            <mxPoint x="470" y="-30" as="targetPoint" />
            <Array as="points" />
          </mxGeometry>
        </mxCell>
        <mxCell id="XYr579Nh2tgdhDAdJk-7-60" value="Scores&lt;div&gt;de Atenção&lt;/div&gt;" style="text;html=1;align=center;verticalAlign=middle;whiteSpace=wrap;rounded=0;fontColor=#000099;fontStyle=1;fontSize=45;" vertex="1" parent="1">
          <mxGeometry x="-290" y="-70" width="80" height="30" as="geometry" />
        </mxCell>
        <mxCell id="XYr579Nh2tgdhDAdJk-7-61" value="" style="endArrow=none;html=1;rounded=0;fillColor=#dae8fc;strokeColor=#6c8ebf;strokeWidth=4;" edge="1" parent="1">
          <mxGeometry width="50" height="50" relative="1" as="geometry">
            <mxPoint x="-120" y="-200" as="sourcePoint" />
            <mxPoint x="520" y="-200" as="targetPoint" />
          </mxGeometry>
        </mxCell>
        <mxCell id="XYr579Nh2tgdhDAdJk-7-62" value="" style="rounded=0;whiteSpace=wrap;html=1;fillColor=#dae8fc;strokeColor=#6c8ebf;strokeWidth=4;" vertex="1" parent="1">
          <mxGeometry x="-65" y="-220" width="50" height="20" as="geometry" />
        </mxCell>
        <mxCell id="XYr579Nh2tgdhDAdJk-7-63" value="" style="rounded=0;whiteSpace=wrap;html=1;fillColor=#dae8fc;strokeColor=#6c8ebf;strokeWidth=4;" vertex="1" parent="1">
          <mxGeometry x="95" y="-350" width="50" height="150" as="geometry" />
        </mxCell>
        <mxCell id="XYr579Nh2tgdhDAdJk-7-64" value="" style="rounded=0;whiteSpace=wrap;html=1;fillColor=#dae8fc;strokeColor=#6c8ebf;strokeWidth=4;" vertex="1" parent="1">
          <mxGeometry x="255" y="-260" width="50" height="60" as="geometry" />
        </mxCell>
        <mxCell id="XYr579Nh2tgdhDAdJk-7-65" value="" style="rounded=0;whiteSpace=wrap;html=1;fillColor=#dae8fc;strokeColor=#6c8ebf;strokeWidth=4;" vertex="1" parent="1">
          <mxGeometry x="415" y="-220" width="50" height="20" as="geometry" />
        </mxCell>
        <mxCell id="XYr579Nh2tgdhDAdJk-7-66" value="&lt;div&gt;Distribuição&lt;/div&gt;&lt;div&gt;de Atenção&lt;/div&gt;" style="text;html=1;align=center;verticalAlign=middle;whiteSpace=wrap;rounded=0;fontColor=#000099;fontStyle=1;fontSize=45;" vertex="1" parent="1">
          <mxGeometry x="-290" y="-290" width="80" height="30" as="geometry" />
        </mxCell>
        <mxCell id="XYr579Nh2tgdhDAdJk-7-67" value="Saída da Atenção" style="text;html=1;align=center;verticalAlign=middle;whiteSpace=wrap;rounded=0;fontSize=31;fontStyle=1" vertex="1" parent="1">
          <mxGeometry x="580" y="-355" width="400" height="30" as="geometry" />
        </mxCell>
        <mxCell id="XYr579Nh2tgdhDAdJk-7-68" value="" style="rounded=0;whiteSpace=wrap;html=1;fillColor=#0050ef;fontColor=#ffffff;strokeColor=#001DBC;strokeWidth=4;" vertex="1" parent="1">
          <mxGeometry x="600" y="-445" width="40" height="210" as="geometry" />
        </mxCell>
        <mxCell id="XYr579Nh2tgdhDAdJk-7-69" value="" style="shape=curlyBracket;whiteSpace=wrap;html=1;rounded=1;labelPosition=left;verticalLabelPosition=middle;align=right;verticalAlign=middle;rotation=-180;strokeWidth=4;" vertex="1" parent="1">
          <mxGeometry x="560" y="-500" width="20" height="320" as="geometry" />
        </mxCell>
        <mxCell id="XYr579Nh2tgdhDAdJk-7-70" value="" style="endArrow=classic;html=1;rounded=0;exitX=1;exitY=0.5;exitDx=0;exitDy=0;entryX=0.5;entryY=0;entryDx=0;entryDy=0;strokeWidth=4;" edge="1" parent="1" source="XYr579Nh2tgdhDAdJk-7-68" target="XYr579Nh2tgdhDAdJk-7-72">
          <mxGeometry width="50" height="50" relative="1" as="geometry">
            <mxPoint x="600" y="-140" as="sourcePoint" />
            <mxPoint x="760" y="-220" as="targetPoint" />
          </mxGeometry>
        </mxCell>
        <mxCell id="XYr579Nh2tgdhDAdJk-7-71" style="edgeStyle=orthogonalEdgeStyle;rounded=0;orthogonalLoop=1;jettySize=auto;html=1;exitX=1;exitY=0.5;exitDx=0;exitDy=0;strokeWidth=4;" edge="1" parent="1" source="XYr579Nh2tgdhDAdJk-7-72">
          <mxGeometry relative="1" as="geometry">
            <mxPoint x="1400" y="-5" as="targetPoint" />
            <Array as="points">
              <mxPoint x="1332" y="-5" />
              <mxPoint x="1400" y="-4" />
            </Array>
          </mxGeometry>
        </mxCell>
        <mxCell id="XYr579Nh2tgdhDAdJk-7-72" value="C" style="ellipse;whiteSpace=wrap;html=1;aspect=fixed;fontSize=36;strokeWidth=3;" vertex="1" parent="1">
          <mxGeometry x="1225" y="-25" width="40" height="40" as="geometry" />
        </mxCell>
        <mxCell id="XYr579Nh2tgdhDAdJk-7-75" style="edgeStyle=orthogonalEdgeStyle;rounded=0;orthogonalLoop=1;jettySize=auto;html=1;entryX=0;entryY=0.5;entryDx=0;entryDy=0;strokeWidth=4;" edge="1" parent="1" target="XYr579Nh2tgdhDAdJk-7-116">
          <mxGeometry relative="1" as="geometry">
            <mxPoint x="960" y="299.99999999999955" as="sourcePoint" />
            <mxPoint x="1080" y="300" as="targetPoint" />
          </mxGeometry>
        </mxCell>
        <mxCell id="XYr579Nh2tgdhDAdJk-7-82" style="edgeStyle=orthogonalEdgeStyle;rounded=0;orthogonalLoop=1;jettySize=auto;html=1;strokeWidth=4;" edge="1" parent="1">
          <mxGeometry relative="1" as="geometry">
            <mxPoint x="920" y="510" as="sourcePoint" />
            <mxPoint x="920" y="440" as="targetPoint" />
          </mxGeometry>
        </mxCell>
        <mxCell id="XYr579Nh2tgdhDAdJk-7-86" style="edgeStyle=orthogonalEdgeStyle;rounded=0;orthogonalLoop=1;jettySize=auto;html=1;exitX=1;exitY=0.5;exitDx=0;exitDy=0;entryX=0;entryY=0.5;entryDx=0;entryDy=0;strokeWidth=4;" edge="1" parent="1">
          <mxGeometry relative="1" as="geometry">
            <mxPoint x="1205" y="300" as="targetPoint" />
            <mxPoint x="1120" y="300" as="sourcePoint" />
          </mxGeometry>
        </mxCell>
        <mxCell id="XYr579Nh2tgdhDAdJk-7-99" style="edgeStyle=orthogonalEdgeStyle;rounded=0;orthogonalLoop=1;jettySize=auto;html=1;strokeWidth=4;" edge="1" parent="1">
          <mxGeometry relative="1" as="geometry">
            <mxPoint x="1080" y="520" as="sourcePoint" />
            <mxPoint x="1080" y="440" as="targetPoint" />
          </mxGeometry>
        </mxCell>
        <mxCell id="XYr579Nh2tgdhDAdJk-7-101" style="edgeStyle=orthogonalEdgeStyle;rounded=0;orthogonalLoop=1;jettySize=auto;html=1;strokeWidth=4;" edge="1" parent="1">
          <mxGeometry relative="1" as="geometry">
            <mxPoint x="1245.090909090909" y="520" as="sourcePoint" />
            <mxPoint x="1245" y="440" as="targetPoint" />
          </mxGeometry>
        </mxCell>
        <mxCell id="XYr579Nh2tgdhDAdJk-7-105" value="&amp;lt;eos&amp;gt;" style="text;html=1;align=center;verticalAlign=middle;whiteSpace=wrap;rounded=0;fontStyle=1;fontSize=45;" vertex="1" parent="1">
          <mxGeometry x="1440" y="-15" width="60" height="30" as="geometry" />
        </mxCell>
        <mxCell id="XYr579Nh2tgdhDAdJk-7-106" value="" style="rounded=1;whiteSpace=wrap;html=1;fillColor=#f8cecc;strokeColor=#b85450;strokeWidth=4;" vertex="1" parent="1">
          <mxGeometry x="720" y="160" width="80" height="280" as="geometry" />
        </mxCell>
        <mxCell id="XYr579Nh2tgdhDAdJk-7-107" value="" style="ellipse;whiteSpace=wrap;html=1;aspect=fixed;fillColor=#d80073;strokeColor=#A50040;strokeWidth=4;fontColor=#ffffff;" vertex="1" parent="1">
          <mxGeometry x="735" y="170" width="50" height="50" as="geometry" />
        </mxCell>
        <mxCell id="XYr579Nh2tgdhDAdJk-7-108" value="" style="ellipse;whiteSpace=wrap;html=1;aspect=fixed;fillColor=#d80073;strokeColor=#A50040;strokeWidth=4;fontColor=#ffffff;" vertex="1" parent="1">
          <mxGeometry x="735" y="240" width="50" height="50" as="geometry" />
        </mxCell>
        <mxCell id="XYr579Nh2tgdhDAdJk-7-109" value="" style="ellipse;whiteSpace=wrap;html=1;aspect=fixed;fillColor=#d80073;strokeColor=#A50040;strokeWidth=4;fontColor=#ffffff;" vertex="1" parent="1">
          <mxGeometry x="735" y="310" width="50" height="50" as="geometry" />
        </mxCell>
        <mxCell id="XYr579Nh2tgdhDAdJk-7-110" value="" style="ellipse;whiteSpace=wrap;html=1;aspect=fixed;fillColor=#d80073;strokeColor=#A50040;strokeWidth=4;fontColor=#ffffff;" vertex="1" parent="1">
          <mxGeometry x="735" y="380" width="50" height="50" as="geometry" />
        </mxCell>
        <mxCell id="XYr579Nh2tgdhDAdJk-7-111" value="" style="rounded=1;whiteSpace=wrap;html=1;fillColor=#f8cecc;strokeColor=#b85450;strokeWidth=4;" vertex="1" parent="1">
          <mxGeometry x="880" y="160" width="80" height="280" as="geometry" />
        </mxCell>
        <mxCell id="XYr579Nh2tgdhDAdJk-7-112" value="" style="ellipse;whiteSpace=wrap;html=1;aspect=fixed;fillColor=#d80073;strokeColor=#A50040;strokeWidth=4;fontColor=#ffffff;" vertex="1" parent="1">
          <mxGeometry x="895" y="170" width="50" height="50" as="geometry" />
        </mxCell>
        <mxCell id="XYr579Nh2tgdhDAdJk-7-113" value="" style="ellipse;whiteSpace=wrap;html=1;aspect=fixed;fillColor=#d80073;strokeColor=#A50040;strokeWidth=4;fontColor=#ffffff;" vertex="1" parent="1">
          <mxGeometry x="895" y="240" width="50" height="50" as="geometry" />
        </mxCell>
        <mxCell id="XYr579Nh2tgdhDAdJk-7-114" value="" style="ellipse;whiteSpace=wrap;html=1;aspect=fixed;fillColor=#d80073;strokeColor=#A50040;strokeWidth=4;fontColor=#ffffff;" vertex="1" parent="1">
          <mxGeometry x="895" y="310" width="50" height="50" as="geometry" />
        </mxCell>
        <mxCell id="XYr579Nh2tgdhDAdJk-7-115" value="" style="ellipse;whiteSpace=wrap;html=1;aspect=fixed;fillColor=#d80073;strokeColor=#A50040;strokeWidth=4;fontColor=#ffffff;" vertex="1" parent="1">
          <mxGeometry x="895" y="380" width="50" height="50" as="geometry" />
        </mxCell>
        <mxCell id="XYr579Nh2tgdhDAdJk-7-116" value="" style="rounded=1;whiteSpace=wrap;html=1;fillColor=#f8cecc;strokeColor=#b85450;strokeWidth=4;" vertex="1" parent="1">
          <mxGeometry x="1040" y="160" width="80" height="280" as="geometry" />
        </mxCell>
        <mxCell id="XYr579Nh2tgdhDAdJk-7-117" value="" style="ellipse;whiteSpace=wrap;html=1;aspect=fixed;fillColor=#d80073;strokeColor=#A50040;strokeWidth=4;fontColor=#ffffff;" vertex="1" parent="1">
          <mxGeometry x="1055" y="170" width="50" height="50" as="geometry" />
        </mxCell>
        <mxCell id="XYr579Nh2tgdhDAdJk-7-118" value="" style="ellipse;whiteSpace=wrap;html=1;aspect=fixed;fillColor=#d80073;strokeColor=#A50040;strokeWidth=4;fontColor=#ffffff;" vertex="1" parent="1">
          <mxGeometry x="1055" y="240" width="50" height="50" as="geometry" />
        </mxCell>
        <mxCell id="XYr579Nh2tgdhDAdJk-7-119" value="" style="ellipse;whiteSpace=wrap;html=1;aspect=fixed;fillColor=#d80073;strokeColor=#A50040;strokeWidth=4;fontColor=#ffffff;" vertex="1" parent="1">
          <mxGeometry x="1055" y="310" width="50" height="50" as="geometry" />
        </mxCell>
        <mxCell id="XYr579Nh2tgdhDAdJk-7-120" value="" style="ellipse;whiteSpace=wrap;html=1;aspect=fixed;fillColor=#d80073;strokeColor=#A50040;strokeWidth=4;fontColor=#ffffff;" vertex="1" parent="1">
          <mxGeometry x="1055" y="380" width="50" height="50" as="geometry" />
        </mxCell>
        <mxCell id="XYr579Nh2tgdhDAdJk-7-139" style="edgeStyle=orthogonalEdgeStyle;rounded=0;orthogonalLoop=1;jettySize=auto;html=1;exitX=0.5;exitY=0;exitDx=0;exitDy=0;entryX=0.5;entryY=1;entryDx=0;entryDy=0;strokeWidth=4;" edge="1" parent="1" source="XYr579Nh2tgdhDAdJk-7-121" target="XYr579Nh2tgdhDAdJk-7-72">
          <mxGeometry relative="1" as="geometry" />
        </mxCell>
        <mxCell id="XYr579Nh2tgdhDAdJk-7-121" value="" style="rounded=1;whiteSpace=wrap;html=1;fillColor=#f8cecc;strokeColor=#b85450;strokeWidth=4;" vertex="1" parent="1">
          <mxGeometry x="1205" y="160" width="80" height="280" as="geometry" />
        </mxCell>
        <mxCell id="XYr579Nh2tgdhDAdJk-7-122" value="" style="ellipse;whiteSpace=wrap;html=1;aspect=fixed;fillColor=#d80073;strokeColor=#A50040;strokeWidth=4;fontColor=#ffffff;" vertex="1" parent="1">
          <mxGeometry x="1220" y="170" width="50" height="50" as="geometry" />
        </mxCell>
        <mxCell id="XYr579Nh2tgdhDAdJk-7-123" value="" style="ellipse;whiteSpace=wrap;html=1;aspect=fixed;fillColor=#d80073;strokeColor=#A50040;strokeWidth=4;fontColor=#ffffff;" vertex="1" parent="1">
          <mxGeometry x="1220" y="240" width="50" height="50" as="geometry" />
        </mxCell>
        <mxCell id="XYr579Nh2tgdhDAdJk-7-124" value="" style="ellipse;whiteSpace=wrap;html=1;aspect=fixed;fillColor=#d80073;strokeColor=#A50040;strokeWidth=4;fontColor=#ffffff;" vertex="1" parent="1">
          <mxGeometry x="1220" y="310" width="50" height="50" as="geometry" />
        </mxCell>
        <mxCell id="XYr579Nh2tgdhDAdJk-7-125" value="" style="ellipse;whiteSpace=wrap;html=1;aspect=fixed;fillColor=#d80073;strokeColor=#A50040;strokeWidth=4;fontColor=#ffffff;" vertex="1" parent="1">
          <mxGeometry x="1220" y="380" width="50" height="50" as="geometry" />
        </mxCell>
        <mxCell id="XYr579Nh2tgdhDAdJk-7-126" value="sem" style="text;html=1;align=center;verticalAlign=middle;whiteSpace=wrap;rounded=0;fontStyle=1;fontSize=45;" vertex="1" parent="1">
          <mxGeometry x="1050" y="520" width="60" height="30" as="geometry" />
        </mxCell>
        <mxCell id="XYr579Nh2tgdhDAdJk-7-127" value="palavras" style="text;html=1;align=center;verticalAlign=middle;whiteSpace=wrap;rounded=0;fontStyle=1;fontSize=45;" vertex="1" parent="1">
          <mxGeometry x="1215" y="520" width="60" height="30" as="geometry" />
        </mxCell>
        <mxCell id="XYr579Nh2tgdhDAdJk-7-128" value="Eu" style="text;html=1;align=center;verticalAlign=middle;whiteSpace=wrap;rounded=0;fontStyle=1;fontSize=45;" vertex="1" parent="1">
          <mxGeometry x="735" y="520" width="60" height="30" as="geometry" />
        </mxCell>
        <mxCell id="XYr579Nh2tgdhDAdJk-7-129" value="estou" style="text;html=1;align=center;verticalAlign=middle;whiteSpace=wrap;rounded=0;fontStyle=1;fontSize=45;" vertex="1" parent="1">
          <mxGeometry x="895" y="520" width="60" height="30" as="geometry" />
        </mxCell>
        <mxCell id="XYr579Nh2tgdhDAdJk-7-132" style="edgeStyle=orthogonalEdgeStyle;rounded=0;orthogonalLoop=1;jettySize=auto;html=1;exitX=0.5;exitY=1;exitDx=0;exitDy=0;" edge="1" parent="1" source="XYr579Nh2tgdhDAdJk-7-126" target="XYr579Nh2tgdhDAdJk-7-126">
          <mxGeometry relative="1" as="geometry" />
        </mxCell>
        <mxCell id="XYr579Nh2tgdhDAdJk-7-136" style="edgeStyle=orthogonalEdgeStyle;rounded=0;orthogonalLoop=1;jettySize=auto;html=1;strokeWidth=4;entryX=0;entryY=0.5;entryDx=0;entryDy=0;" edge="1" parent="1" target="XYr579Nh2tgdhDAdJk-7-32">
          <mxGeometry relative="1" as="geometry">
            <mxPoint x="-160" y="300" as="sourcePoint" />
            <mxPoint x="-160" y="370" as="targetPoint" />
          </mxGeometry>
        </mxCell>
        <mxCell id="XYr579Nh2tgdhDAdJk-7-137" value="" style="shape=curlyBracket;whiteSpace=wrap;html=1;rounded=1;labelPosition=left;verticalLabelPosition=middle;align=right;verticalAlign=middle;rotation=-90;strokeWidth=4;" vertex="1" parent="1">
          <mxGeometry x="1000" y="300" width="20" height="590" as="geometry" />
        </mxCell>
        <mxCell id="XYr579Nh2tgdhDAdJk-7-138" value="Sentença de Entrada" style="text;html=1;align=center;verticalAlign=middle;whiteSpace=wrap;rounded=0;fontSize=28;" vertex="1" parent="1">
          <mxGeometry x="850" y="625" width="320" height="30" as="geometry" />
        </mxCell>
      </root>
    </mxGraphModel>
  </diagram>
</mxfile>
